# xmcd
#
# Track frame offsets: 
#        150
#        24472
#        44215
#        59415
#        84112
#        101742
#        119597
#        145242
#        164944
#        182539
#        202582
#        223705
#        246743
#        266681
#        287997
#        309443
#
# Disc length: 4206 seconds
#
# Revision: 0
# Processed by: cddbd v1.5.2PL0 Copyright (c) Steve Scherf et al.
# Submitted via: ExactAudioCopy v0.99pb5
#
DISCID=fa106c10
DTITLE=Альфа - Grand Collection
DYEAR=2000
DGENRE=Rock and Roll
TTITLE0=Шторм
TTITLE1=Расклейщик афиш
TTITLE2=Гуляка
TTITLE3=Театр
TTITLE4=Я стал таким невзрачным
TTITLE5=Зеркало-река
TTITLE6=Африка
TTITLE7=Что такое один
TTITLE8=Привычка
TTITLE9=Время
TTITLE10=Звёзды нам светят
TTITLE11=Чудо-тройка
TTITLE12=Ворон
TTITLE13=Тёплый ветер
TTITLE14=Я сегодня никому не нужен
TTITLE15=Инструментальная пьеса
EXTD=
EXTT0=
EXTT1=
EXTT2=
EXTT3=
EXTT4=
EXTT5=
EXTT6=
EXTT7=
EXTT8=
EXTT9=
EXTT10=
EXTT11=
EXTT12=
EXTT13=
EXTT14=
EXTT15=
PLAYORDER=
